<mxfile host="app.diagrams.net" modified="2023-09-11T07:01:16.718Z" agent="Mozilla/5.0 (Macintosh; Intel Mac OS X 10_15_7) AppleWebKit/537.36 (KHTML, like Gecko) Chrome/116.0.0.0 Safari/537.36" version="21.7.2" etag="MDeARi4m4I6262aD-5Ij" type="github">
  <diagram name="第 1 页" id="WEfhDZlZl21mgCY_R2Nz">
    <mxGraphModel>
      <root>
        <mxCell id="0" />
        <mxCell id="1" parent="0" />
      </root>
    </mxGraphModel>
  </diagram>
</mxfile>
